<?xml version="1.0" encoding="utf-8"?>
<!-- Generator: Adobe Illustrator 23.0.4, SVG Export Plug-In . SVG Version: 6.00 Build 0)  -->
<svg version="1.1" id="Layer_1" xmlns="http://www.w3.org/2000/svg" xmlns:xlink="http://www.w3.org/1999/xlink" x="0px" y="0px"
	 width="554px" height="140.67px" viewBox="0 0 554 140.67" style="enable-background:new 0 0 554 140.67;" xml:space="preserve">
<path d="M464.44,61.42l28.19,37.03h10.92V40.21H490.9v35.86l-27.29-35.86h-11.81v58.24h12.64V61.42z M59.42,75.1h23.63v23.35h12.78
	V40.21H83.05v23.01H59.42V40.21H46.64v58.24h12.78V75.1z M554,0v140.67H0V0h553.93H554z M541.35,12.64H12.64v115.38h528.71V12.64z
	 M215.78,99.22c15.68,0,25.56-8.64,25.56-26.26V40.14h-12.85v33.37c0,9.26-4.77,13.96-12.57,13.96s-12.57-4.91-12.57-14.37V40.14
	h-12.78v33.23C190.56,90.51,200.09,99.22,215.78,99.22z M112.28,69.44V69.3c0-16.58,13.06-30.12,31.02-30.12
	c17.96,0,30.82,13.4,30.88,29.99v0.07c0,16.58-13.06,30.12-31.02,30.12C125.2,99.35,112.28,86.02,112.28,69.44z M125.61,69.23
	c0,10.02,7.32,18.31,17.62,18.31c10.29,0,17.48-8.15,17.48-18.1v-0.07c0-10.02-7.32-18.31-17.62-18.31
	c-10.29,0-17.48,8.15-17.48,18.1V69.23z M282.24,87.89c-6.63,0-12.16-2.76-17.41-7.05l-7.6,9.05c6.98,6.22,15.89,9.33,24.74,9.33
	c12.57,0,21.35-6.49,21.35-18.03v-0.14c0.21-10.16-6.49-14.37-18.31-17.48c-10.09-2.56-12.57-3.8-12.57-7.67v-0.14
	c0-2.83,2.56-5.04,7.46-5.04c4.91,0,9.95,2.14,15.13,5.73l6.63-9.67c-5.87-4.77-13.13-7.39-21.63-7.39
	c-11.88,0-20.38,6.98-20.38,17.55v0.14c0,11.54,7.6,14.79,19.28,17.83c9.74,2.49,11.75,4.15,11.75,7.39v0.14
	C290.67,85.81,287.49,87.89,282.24,87.89z M373.37,69.44V69.3c0-16.58,13.06-30.12,31.02-30.12s30.88,13.4,30.88,29.99v0.07
	c0,16.58-13.06,30.12-31.02,30.12S373.37,86.02,373.37,69.44z M386.78,69.23c0,10.02,7.32,18.31,17.62,18.31
	c10.29,0,17.48-8.15,17.48-18.1v-0.07c0-10.02-7.32-18.31-17.62-18.31s-17.48,8.15-17.48,18.1V69.23z M331.92,52.03v46.43h12.78
	V52.03h17.69V40.21h-48.23v11.81h0.07H331.92z"/>
</svg>
